<svg width="14" height="14" viewBox="0 0 14 14" fill="none" xmlns="http://www.w3.org/2000/svg">
<path d="M4.66699 7.1167H8.75033" stroke="black" stroke-width="1.5" stroke-miterlimit="10" stroke-linecap="round" stroke-linejoin="round"/>
<path d="M4.66699 9.44995H7.22199" stroke="black" stroke-width="1.5" stroke-miterlimit="10" stroke-linecap="round" stroke-linejoin="round"/>
<path d="M5.83366 3.50008H8.16699C9.33366 3.50008 9.33366 2.91675 9.33366 2.33341C9.33366 1.16675 8.75033 1.16675 8.16699 1.16675H5.83366C5.25033 1.16675 4.66699 1.16675 4.66699 2.33341C4.66699 3.50008 5.25033 3.50008 5.83366 3.50008Z" stroke="black" stroke-width="1.5" stroke-miterlimit="10" stroke-linecap="round" stroke-linejoin="round"/>
<path d="M9.33333 2.34497C11.2758 2.44997 12.25 3.16747 12.25 5.8333V9.3333C12.25 11.6666 11.6667 12.8333 8.75 12.8333H5.25C2.33333 12.8333 1.75 11.6666 1.75 9.3333V5.8333C1.75 3.1733 2.72417 2.44997 4.66667 2.34497" stroke="black" stroke-width="1.5" stroke-miterlimit="10" stroke-linecap="round" stroke-linejoin="round"/>
</svg>
