<svg width="25" height="25" viewBox="0 0 20 20" fill="none" xmlns="http://www.w3.org/2000/svg">
<path d="M17.7775 5.72241H13.1108" stroke="black" stroke-width="1.5" stroke-miterlimit="10" stroke-linecap="round" stroke-linejoin="round"/>
<path d="M5.33328 5.72241H2.22217" stroke="black" stroke-width="1.5" stroke-miterlimit="10" stroke-linecap="round" stroke-linejoin="round"/>
<path d="M8.44439 8.44444C9.94783 8.44444 11.1666 7.22566 11.1666 5.72222C11.1666 4.21878 9.94783 3 8.44439 3C6.94095 3 5.72217 4.21878 5.72217 5.72222C5.72217 7.22566 6.94095 8.44444 8.44439 8.44444Z" stroke="black" stroke-width="1.5" stroke-miterlimit="10" stroke-linecap="round" stroke-linejoin="round"/>
<path d="M17.7776 14.2778H14.6665" stroke="black" stroke-width="1.5" stroke-miterlimit="10" stroke-linecap="round" stroke-linejoin="round"/>
<path d="M6.88883 14.2778H2.22217" stroke="black" stroke-width="1.5" stroke-miterlimit="10" stroke-linecap="round" stroke-linejoin="round"/>
<path d="M11.5552 17.0001C13.0587 17.0001 14.2775 15.7813 14.2775 14.2779C14.2775 12.7744 13.0587 11.5557 11.5552 11.5557C10.0518 11.5557 8.83301 12.7744 8.83301 14.2779C8.83301 15.7813 10.0518 17.0001 11.5552 17.0001Z" stroke="black" stroke-width="1.5" stroke-miterlimit="10" stroke-linecap="round" stroke-linejoin="round"/>
</svg>
