<svg width="14" height="14" viewBox="0 0 14 14" fill="none" xmlns="http://www.w3.org/2000/svg">
<path d="M6.99967 7.00008C8.61051 7.00008 9.91634 5.69425 9.91634 4.08342C9.91634 2.47258 8.61051 1.16675 6.99967 1.16675C5.38884 1.16675 4.08301 2.47258 4.08301 4.08342C4.08301 5.69425 5.38884 7.00008 6.99967 7.00008Z" stroke="black" stroke-width="1.5" stroke-linecap="round" stroke-linejoin="round"/>
<path d="M1.98926 12.8333C1.98926 10.5758 4.23509 8.75 7.00009 8.75C7.56009 8.75 8.10259 8.82583 8.61009 8.96583" stroke="black" stroke-width="1.5" stroke-linecap="round" stroke-linejoin="round"/>
<path d="M12.8337 10.5001C12.8337 10.6867 12.8103 10.8676 12.7637 11.0426C12.7112 11.2759 12.6178 11.5034 12.4953 11.7017C12.0928 12.3784 11.352 12.8334 10.5003 12.8334C9.89949 12.8334 9.35699 12.6059 8.94866 12.2326C8.77366 12.0809 8.62198 11.9001 8.50532 11.7017C8.28948 11.3517 8.16699 10.9376 8.16699 10.5001C8.16699 9.87008 8.41783 9.29259 8.82616 8.87259C9.252 8.43509 9.84699 8.16675 10.5003 8.16675C11.1887 8.16675 11.8128 8.46426 12.2328 8.94259C12.6062 9.35676 12.8337 9.90508 12.8337 10.5001Z" stroke="black" stroke-width="1.5" stroke-miterlimit="10" stroke-linecap="round" stroke-linejoin="round"/>
<path d="M11.3692 10.4883H9.63086" stroke="black" stroke-miterlimit="10" stroke-linecap="round" stroke-linejoin="round"/>
<path d="M10.5 9.63672V11.3809" stroke="black" stroke-miterlimit="10" stroke-linecap="round" stroke-linejoin="round"/>
</svg>
