<svg width="14" height="14" viewBox="0 0 14 14" fill="none" xmlns="http://www.w3.org/2000/svg">
<path d="M12.8337 3.64591V6.6209C12.8337 7.36173 12.5887 7.98591 12.1512 8.41758C11.7195 8.85508 11.0953 9.10007 10.3545 9.10007V10.1559C10.3545 10.5526 9.91116 10.7917 9.58449 10.5701L9.01866 10.1967C9.07116 10.0159 9.09449 9.81756 9.09449 9.60756V7.23343C9.09449 6.04343 8.30116 5.25008 7.11116 5.25008H3.15032C3.06866 5.25008 2.99283 5.25593 2.91699 5.26176V3.64591C2.91699 2.15841 3.90866 1.16675 5.39616 1.16675H10.3545C11.842 1.16675 12.8337 2.15841 12.8337 3.64591Z" stroke="black" stroke-width="1.5" stroke-miterlimit="10" stroke-linecap="round" stroke-linejoin="round"/>
<path d="M9.09449 7.23335V9.60748C9.09449 9.81748 9.07116 10.0158 9.01866 10.1967C8.80283 11.0542 8.09116 11.5908 7.11116 11.5908H5.52449L3.76282 12.7633C3.50032 12.9442 3.15032 12.7517 3.15032 12.4367V11.5908C2.55532 11.5908 2.05949 11.3925 1.71533 11.0483C1.36533 10.6983 1.16699 10.2025 1.16699 9.60748V7.23335C1.16699 6.12501 1.85533 5.36084 2.91699 5.26168C2.99283 5.25584 3.06866 5.25 3.15032 5.25H7.11116C8.30116 5.25 9.09449 6.04335 9.09449 7.23335Z" stroke="black" stroke-width="1.5" stroke-miterlimit="10" stroke-linecap="round" stroke-linejoin="round"/>
</svg>
