<svg width="12" height="14" viewBox="0 0 12 14" fill="none" xmlns="http://www.w3.org/2000/svg">
<path d="M10.45 3.5V10.5C10.45 11.9054 10.2562 12.4832 9.96967 12.7697C9.68318 13.0562 9.10536 13.25 7.7 13.25H3.5C2.09464 13.25 1.51682 13.0562 1.23033 12.7697C0.943836 12.4832 0.75 11.9054 0.75 10.5V3.5C0.75 2.09464 0.943836 1.51682 1.23033 1.23033C1.51682 0.943836 2.09464 0.75 3.5 0.75H7.7C9.10536 0.75 9.68317 0.943836 9.96967 1.23033C10.2562 1.51682 10.45 2.09464 10.45 3.5Z" stroke="black" stroke-width="1.5" stroke-linecap="round" stroke-linejoin="round"/>
<path d="M7.0002 4.44995H4.2002" stroke="black" stroke-width="1.5" stroke-linecap="round" stroke-linejoin="round"/>
<path d="M5.93465 10.885C5.93465 11.0701 5.78466 11.22 5.59965 11.22C5.41463 11.22 5.26465 11.0701 5.26465 10.885C5.26465 10.7 5.41463 10.55 5.59965 10.55C5.78466 10.55 5.93465 10.7 5.93465 10.885Z" stroke="black" stroke-width="1.5" stroke-linecap="round" stroke-linejoin="round"/>
</svg>
