<svg width="14" height="14" viewBox="0 0 14 14" fill="none" xmlns="http://www.w3.org/2000/svg">
<path d="M7.01184 1.69751C5.08101 1.69751 3.51184 3.26668 3.51184 5.19751V6.88334C3.51184 7.23918 3.36017 7.78168 3.17934 8.08501L2.50851 9.19918C2.09434 9.88751 2.38017 10.6517 3.13851 10.9083C5.65267 11.7483 8.36517 11.7483 10.8793 10.9083C11.5852 10.675 11.8943 9.84084 11.5093 9.19918L10.8385 8.08501C10.6635 7.78168 10.5118 7.23918 10.5118 6.88334V5.19751C10.5118 3.27251 8.93684 1.69751 7.01184 1.69751Z" stroke="black" stroke-width="1.5" stroke-miterlimit="10" stroke-linecap="round"/>
<path d="M8.09095 1.86659C7.91012 1.81409 7.72345 1.77326 7.53095 1.74993C6.97095 1.67993 6.43428 1.72076 5.93262 1.86659C6.10178 1.43493 6.52178 1.13159 7.01178 1.13159C7.50178 1.13159 7.92178 1.43493 8.09095 1.86659Z" stroke="black" stroke-width="1.5" stroke-miterlimit="10" stroke-linecap="round" stroke-linejoin="round"/>
<path d="M8.76172 11.1184C8.76172 12.0809 7.97422 12.8684 7.01172 12.8684C6.53339 12.8684 6.09005 12.6701 5.77505 12.3551C5.46005 12.0401 5.26172 11.5967 5.26172 11.1184" stroke="black" stroke-width="1.5" stroke-miterlimit="10"/>
</svg>
