<svg width="14" height="14" viewBox="0 0 14 14" fill="none" xmlns="http://www.w3.org/2000/svg">
<path d="M6.11925 1.30091L3.20842 2.39174C2.53759 2.64257 1.98926 3.4359 1.98926 4.1534V8.48756C1.98926 9.17589 2.44426 10.0801 2.99843 10.4942L5.50676 12.3667C6.32926 12.9851 7.68258 12.9851 8.50508 12.3667L11.0134 10.4942C11.5676 10.0801 12.0226 9.17589 12.0226 8.48756V4.1534C12.0226 3.4359 11.4742 2.64257 10.8034 2.39174L7.89259 1.30091C7.39675 1.12007 6.60342 1.12007 6.11925 1.30091Z" stroke="black" stroke-width="1.5" stroke-linecap="round" stroke-linejoin="round"/>
<path d="M7.00015 6.37C6.97681 6.37 6.94764 6.37 6.92431 6.37C6.37598 6.3525 5.93848 5.89749 5.93848 5.34332C5.93848 4.77749 6.39932 4.31665 6.96515 4.31665C7.53098 4.31665 7.99182 4.77749 7.99182 5.34332C7.98599 5.90332 7.54848 6.3525 7.00015 6.37Z" stroke="black" stroke-width="1.5" stroke-linecap="round" stroke-linejoin="round"/>
<path d="M5.83895 8.00333C5.27895 8.37667 5.27895 8.98916 5.83895 9.36249C6.47478 9.78833 7.51895 9.78833 8.15478 9.36249C8.71478 8.98916 8.71478 8.37667 8.15478 8.00333C7.52478 7.5775 6.48061 7.5775 5.83895 8.00333Z" stroke="black" stroke-width="1.5" stroke-linecap="round" stroke-linejoin="round"/>
</svg>
