<svg width="16" height="16" viewBox="0 0 16 16" fill="none" xmlns="http://www.w3.org/2000/svg">
<path d="M9.61301 14.7243C9.83151 14.6151 9.91888 14.3528 9.8097 14.1343C9.70052 13.9158 9.43827 13.8285 9.21976 13.9376L8.10547 14.5058V7.16463L10.2903 6.07229V7.5579C10.2903 7.79821 10.487 7.99489 10.7273 7.99489C10.9676 7.99489 11.1643 7.7982 11.1643 7.5579V5.63531L13.3492 4.54297L13.349 9.30574C13.349 9.54605 13.5457 9.74272 13.786 9.74272C14.0263 9.74272 14.223 9.54603 14.223 9.30574V3.84386C14.223 3.66912 14.1356 3.51619 13.9827 3.45063L7.86524 0.391946C7.73411 0.326383 7.60312 0.326383 7.472 0.391946L1.35457 3.45063C1.20163 3.51619 1.11426 3.66913 1.11426 3.84386V12.1464C1.11426 12.3211 1.20163 12.4741 1.35457 12.5396L7.472 15.5983C7.53757 15.6201 7.60313 15.6421 7.6687 15.6421C7.73426 15.6421 7.79982 15.6203 7.86539 15.5983L9.61301 14.7243ZM7.66847 1.26569L12.8027 3.84378L10.7271 4.89251L5.59282 2.31442L7.66847 1.26569ZM7.23148 14.5059L1.98801 11.884V4.54289L7.23148 7.16473V14.5059ZM7.66847 6.42208L2.5342 3.84399L4.60971 2.79526L9.74398 5.37335L7.66847 6.42208Z" fill="black"/>
<path d="M13.3707 11.7094L13.2615 11.5783C13.1086 11.4254 12.7372 11.0539 12.2566 11.0539C11.776 11.0539 11.6666 11.1631 11.4701 11.3598C11.2954 11.5346 11.0331 11.5346 10.8584 11.3598C10.6836 11.1851 10.6836 10.9228 10.8584 10.7481C11.0987 10.5078 11.4265 10.1799 12.2566 10.1799C13.0868 10.1799 13.6548 10.7481 13.8733 10.9664L14.0044 11.0975C14.0044 10.8572 14.2011 10.6605 14.4414 10.6605C14.6817 10.6605 14.8784 10.8572 14.8784 11.0975L14.8782 12.1464C14.8782 12.3867 14.6816 12.5834 14.4413 12.5834H13.3707C13.1304 12.5834 12.9337 12.3867 12.9337 12.1464C12.9339 11.9061 13.1304 11.7094 13.3707 11.7094L13.3707 11.7094Z" fill="black"/>
<path d="M12.0161 13.2385L12.1252 13.3697C12.2782 13.5226 12.6496 13.894 13.1302 13.894C13.6108 13.894 13.7202 13.7849 13.9167 13.5882C14.0914 13.4134 14.3537 13.4134 14.5284 13.5882C14.7032 13.7629 14.7032 14.0252 14.5284 14.1999C14.2884 14.4402 13.9606 14.7681 13.1304 14.7681C12.3001 14.7681 11.7322 14.1999 11.5136 13.9816L11.3825 13.8503C11.3825 14.0906 11.1858 14.2873 10.9455 14.2873C10.7052 14.2873 10.5085 14.0906 10.5085 13.8503L10.5087 12.8017C10.5087 12.5614 10.7054 12.3647 10.9457 12.3647H12.0162C12.2565 12.3647 12.4532 12.5614 12.4532 12.8017C12.453 13.042 12.2565 13.2386 12.0161 13.2386L12.0161 13.2385Z" fill="black"/>
</svg>
