<svg width="90" height="90" viewBox="0 0 80 80" fill="none" xmlns="http://www.w3.org/2000/svg">
<path d="M40.0666 2.38013C19.3007 2.38013 2.38037 19.3005 2.38037 40.0664C2.38037 60.8323 19.3007 77.7527 40.0666 77.7527C60.8325 77.7527 77.7529 60.8323 77.7529 40.0664C77.7529 19.3005 60.8325 2.38013 40.0666 2.38013ZM40.0666 74.83C20.9159 74.83 5.30298 59.2172 5.30298 40.0664C5.30298 20.9156 20.9159 5.37965 40.0666 5.37965C59.2174 5.37965 74.7534 20.9156 74.7534 40.0664C74.7534 59.2172 59.2174 74.83 40.0666 74.83Z" fill="#999999"/>
<path d="M39.9129 49.9111C32.6065 49.9111 25.992 53.9874 22.7618 60.6017C22.3771 61.3711 22.685 62.2171 23.4538 62.6013C24.2232 62.9859 25.0692 62.678 25.4534 61.9092C28.2222 56.3716 33.7597 52.9106 39.9895 52.9106C46.2193 52.9106 51.7568 56.3715 54.5256 61.9092C54.7563 62.4478 55.295 62.7552 55.833 62.7552C56.0637 62.7552 56.2944 62.6785 56.5251 62.6013C57.2944 62.2166 57.5251 61.3706 57.2172 60.6017C53.8335 53.988 47.2192 49.9111 39.9123 49.9111H39.9129Z" fill="#999999"/>
<path d="M26.5302 34.0674C29.299 34.0674 31.5291 31.8373 31.5291 29.0685C31.5291 26.2997 29.299 24.0696 26.5302 24.0696C23.7614 24.0696 21.5312 26.2997 21.5312 29.0685C21.5312 31.8373 23.7614 34.0674 26.5302 34.0674ZM26.5302 27.069C27.6069 27.069 28.5297 27.9917 28.5297 29.0685C28.5297 30.1452 27.607 31.0681 26.5302 31.0681C25.4534 31.0681 24.5306 30.1453 24.5306 29.0685C24.5306 27.9918 25.3767 27.069 26.5302 27.069Z" fill="#999999"/>
<path d="M53.6029 24.1458C50.8341 24.1458 48.604 26.3759 48.604 29.1447C48.604 31.9135 50.8341 34.1436 53.6029 34.1436C56.3717 34.1436 58.6019 31.9135 58.6019 29.1447C58.6019 26.3759 56.2949 24.1458 53.6029 24.1458ZM53.6029 31.1448C52.5262 31.1448 51.6034 30.222 51.6034 29.1452C51.6034 28.0685 52.5262 27.1457 53.6029 27.1457C54.6797 27.1457 55.6025 28.0685 55.6025 29.1452C55.6025 30.2214 54.6797 31.1448 53.6029 31.1448Z" fill="#999999"/>
</svg>
