<svg width="14" height="14" viewBox="0 0 14 14" fill="none" xmlns="http://www.w3.org/2000/svg">
<path d="M1.75586 6.54492V9.16409C1.75586 11.7833 2.80586 12.8333 5.42503 12.8333H8.56919C11.1884 12.8333 12.2384 11.7833 12.2384 9.16409V6.54492" stroke="black" stroke-width="1.5" stroke-linecap="round" stroke-linejoin="round"/>
<path d="M6.99963 7.00008C8.06713 7.00008 8.85463 6.13092 8.74963 5.06342L8.36463 1.16675H5.64046L5.24963 5.06342C5.14463 6.13092 5.93213 7.00008 6.99963 7.00008Z" stroke="black" stroke-width="1.5" stroke-linecap="round" stroke-linejoin="round"/>
<path d="M10.681 7.00008C11.8593 7.00008 12.7226 6.04342 12.606 4.87092L12.4426 3.26675C12.2326 1.75008 11.6493 1.16675 10.121 1.16675H8.3418L8.75013 5.25592C8.8493 6.21842 9.71846 7.00008 10.681 7.00008Z" stroke="black" stroke-width="1.5" stroke-linecap="round" stroke-linejoin="round"/>
<path d="M3.29005 7.00008C4.25255 7.00008 5.12172 6.21842 5.21505 5.25592L5.34339 3.96675L5.62339 1.16675H3.84422C2.31589 1.16675 1.73255 1.75008 1.52255 3.26675L1.36505 4.87092C1.24839 6.04342 2.11172 7.00008 3.29005 7.00008Z" stroke="black" stroke-width="1.5" stroke-linecap="round" stroke-linejoin="round"/>
<path d="M7.00033 9.91675C6.02616 9.91675 5.54199 10.4009 5.54199 11.3751V12.8334H8.45866V11.3751C8.45866 10.4009 7.97449 9.91675 7.00033 9.91675Z" stroke="black" stroke-width="1.5" stroke-linecap="round" stroke-linejoin="round"/>
</svg>
